<svg width="2088" height="2088" viewBox="0 0 2088 2088" fill="none" xmlns="http://www.w3.org/2000/svg">
<rect width="2088" height="2088" rx="165" fill="black"/>
<path d="M294.473 662.76C290.479 654.499 285.737 648.186 289.199 638.338C311.473 639.052 330.13 651.026 349.673 658.851C415.807 685.331 481.086 713.962 547.383 740.01C569.335 748.635 582.771 762.406 593.55 782.721C688.275 961.237 737.161 1046.44 832.437 1224.66C878.689 1311.18 925.134 1397.6 971.284 1484.18C975.539 1492.16 981.304 1499.85 980.81 1509.75C974.417 1519.46 964.399 1516.7 955.585 1516.73C896.868 1516.92 838.146 1516.37 779.438 1517.04C761.322 1517.25 751.006 1510.84 742.181 1494.28C578.141 1186.43 459.946 971.902 294.473 662.76Z" fill="#ED7300"/>
<path d="M1217.9 1464.06C1194.03 1418.63 1170.97 1374.88 1147.87 1331.16C1141.88 1319.84 1136.77 1308.98 1143.88 1295.71C1177.14 1233.65 1209.92 1171.35 1243.02 1109.2C1244.9 1105.67 1248.05 1102.81 1253.82 1095.64C1292.01 1167 1328.8 1235.75 1365.55 1304.41C1379.76 1299.19 1381.5 1288.21 1385.97 1279.79C1432.8 1191.74 1511.89 1048.6 1557.33 959.83C1569.01 937.018 1583.93 929.308 1608.78 930.124C1658.19 931.749 1707.69 930.358 1757.15 930.63C1771.19 930.707 1785.5 929.735 1798.58 934.443C1803.17 942.658 1797.96 948.009 1794.93 953.696C1705.5 1121.61 1583.95 1344.69 1494.92 1512.81C1486.76 1528.22 1476.6 1534.51 1459.31 1534.29C1400.63 1533.53 1341.92 1533.14 1283.26 1534.28C1262.07 1534.68 1248.35 1528.75 1240.39 1508.29C1234.66 1493.53 1226.04 1479.89 1217.9 1464.06Z" fill="#ED7300"/>
<path d="M983.305 1097.32C1068.49 936.121 1152.82 776.582 1236.95 617.41C1250.52 623.089 1252.96 631.498 1256.51 638.944C1283.51 695.694 1310.34 752.526 1337.42 809.239C1345.64 826.443 1349.33 841.823 1339.03 861.209C1233.25 1060.27 1128.52 1259.89 1023.47 1459.34C1020.02 1465.9 1017.53 1473.32 1009.89 1476.22C999.278 1474.63 997.122 1465.52 993.35 1458.47C962.933 1401.56 933.169 1344.3 902.276 1287.66C894.395 1273.21 895.844 1261.28 903.227 1247.64C929.967 1198.27 956.09 1148.56 983.305 1097.32Z" fill="white"/>
<path d="M1068.14 864.738C1003.49 987.07 939.707 1107.76 875.765 1228.37C874.759 1230.27 871.784 1231.12 869.928 1232.33C862.153 1229.89 860.215 1222.88 857.152 1217.2C825.746 1158.95 794.741 1100.49 763.131 1042.35C757.013 1031.1 755.746 1021.83 762.302 1009.76C795.471 948.656 828.069 887.235 859.919 825.438C868.271 809.233 878.748 802.544 897.289 802.875C955.084 803.908 1012.91 803.192 1070.72 803.324C1078.11 803.341 1085.88 801.891 1094.57 807.936C1091.59 828.339 1076.91 844.3 1068.14 864.738Z" fill="#A7A7A7"/>
<path d="M1450.63 557.013C1603.88 556.365 1738.3 659.439 1763.81 822.087C1764.4 825.877 1764.46 829.749 1764.95 833.559C1769.89 872.038 1745.33 889.84 1707.89 875.344C1693.33 869.707 1696.08 856.268 1694.82 845.958C1687.35 784.995 1660.62 733.884 1615.33 693.556C1546 631.829 1466.36 613.918 1377.26 643.209C1366.89 646.617 1354.56 656.593 1346.04 643.643C1335.7 627.925 1324.29 611.382 1323.97 591.614C1323.83 582.902 1334.75 581.751 1341.68 579.152C1375.99 566.277 1411.16 557.275 1450.63 557.013Z" fill="white"/>
<path d="M1531.1 692.885C1595.87 724.587 1636.19 771.968 1643.28 843.394C1644.67 857.381 1647.85 875.385 1625 873.448C1605.7 871.813 1579.64 886.078 1572.08 851.31C1555.75 776.208 1499.17 739.983 1423.23 753.904C1401.89 757.816 1385.43 741.345 1378.98 709.917C1374.46 687.908 1392.97 687.215 1405.32 683.627C1447.33 671.428 1488.71 676.12 1531.1 692.885Z" fill="white"/>
<path d="M1520.98 837.481C1521.26 866.879 1497.66 890.941 1468.26 891.225C1438.86 891.508 1414.8 867.906 1414.52 838.508C1414.24 809.109 1437.84 785.048 1467.24 784.764C1496.63 784.48 1520.7 808.083 1520.98 837.481Z" fill="white"/>
<path d="M1520.98 837.481C1521.26 866.879 1497.66 890.941 1468.26 891.225C1438.86 891.508 1414.8 867.906 1414.52 838.508C1414.24 809.109 1437.84 785.048 1467.24 784.764C1496.63 784.48 1520.7 808.083 1520.98 837.481Z" fill="white"/>
</svg>
